HIERARCHY
ROOT Hips
{
	OFFSET 8.91173 92.52490 -21.95620
	CHANNELS 6 Xposition Yposition Zposition Zrotation Xrotation Yrotation
	JOINT Spine
	{
		OFFSET 0.00000 14.09320 -1.51142
		CHANNELS 3 Zrotation Xrotation Yrotation
		JOINT Spine1
		{
			OFFSET 0.00000 8.69660 0.00000
			CHANNELS 3 Zrotation Xrotation Yrotation
			JOINT Spine2
			{
				OFFSET 0.00000 8.69660 0.00000
				CHANNELS 3 Zrotation Xrotation Yrotation
				JOINT Spine3
				{
					OFFSET 0.00000 8.69660 0.00000
					CHANNELS 3 Zrotation Xrotation Yrotation
					JOINT Neck
					{
						OFFSET 0.00000 11.18130 1.11813
						CHANNELS 3 Zrotation Xrotation Yrotation
						JOINT Neck1
						{
							OFFSET 0.00000 5.70631 0.00000
							CHANNELS 3 Zrotation Xrotation Yrotation
							JOINT Head
							{
								OFFSET 0.00000 5.70631 0.00000
								CHANNELS 3 Zrotation Xrotation Yrotation
								End site
								{
									OFFSET 0.00000 9.71257 0.00000
								}
							}
						}
					}
					JOINT RightShoulder
					{
						OFFSET 0.00000 7.98668 5.19711
						CHANNELS 3 Zrotation Xrotation Yrotation
						JOINT RightArm
						{
							OFFSET 0.00000 18.31580 0.00000
							CHANNELS 3 Zrotation Xrotation Yrotation
							JOINT RightForeArm
							{
								OFFSET 0.00000 28.87420 0.00000
								CHANNELS 3 Zrotation Xrotation Yrotation
								JOINT RightHand
								{
									OFFSET 0.00000 23.87720 0.00000
									CHANNELS 3 Zrotation Xrotation Yrotation
									JOINT RightHandThumb1
									{
										OFFSET -2.41094 4.67063 3.47303
										CHANNELS 3 Zrotation Xrotation Yrotation
										JOINT RightHandThumb2
										{
											OFFSET 0.00000 3.95207 0.00000
											CHANNELS 3 Zrotation Xrotation Yrotation
											JOINT RightHandThumb3
											{
												OFFSET 0.00000 2.15568 0.00000
												CHANNELS 3 Zrotation Xrotation Yrotation
												End site
												{
													OFFSET 0.00000 1.91616 0.00000
												}
											}
										}
									}
									JOINT RightHandIndex1
									{
										OFFSET 0.00000 12.45500 2.51496
										CHANNELS 3 Zrotation Xrotation Yrotation
										JOINT RightHandIndex2
										{
											OFFSET 0.00000 4.79039 0.00000
											CHANNELS 3 Zrotation Xrotation Yrotation
											JOINT RightHandIndex3
											{
												OFFSET 0.00000 2.63472 0.00000
												CHANNELS 3 Zrotation Xrotation Yrotation
												End site
												{
													OFFSET 0.00000 1.91616 0.00000
												}
											}
										}
									}
									JOINT RightHandMiddle1
									{
										OFFSET 0.00000 12.45500 -0.07984
										CHANNELS 3 Zrotation Xrotation Yrotation
										JOINT RightHandMiddle2
										{
											OFFSET 0.00000 5.38919 0.00000
											CHANNELS 3 Zrotation Xrotation Yrotation
											JOINT RightHandMiddle3
											{
												OFFSET 0.00000 3.11376 0.00000
												CHANNELS 3 Zrotation Xrotation Yrotation
												End site
												{
													OFFSET 0.00000 2.03592 0.00000
												}
											}
										}
									}
									JOINT RightHandRing1
									{
										OFFSET 0.00000 11.07780 -2.67464
										CHANNELS 3 Zrotation Xrotation Yrotation
										JOINT RightHandRing2
										{
											OFFSET 0.00000 4.91015 0.00000
											CHANNELS 3 Zrotation Xrotation Yrotation
											JOINT RightHandRing3
											{
												OFFSET 0.00000 3.11376 0.00000
												CHANNELS 3 Zrotation Xrotation Yrotation
												End site
												{
													OFFSET 0.00000 2.03592 0.00000
												}
											}
										}
									}
									JOINT RightHandPinky1
									{
										OFFSET 0.00000 9.70055 -5.26943
										CHANNELS 3 Zrotation Xrotation Yrotation
										JOINT RightHandPinky2
										{
											OFFSET 0.00000 3.95207 0.00000
											CHANNELS 3 Zrotation Xrotation Yrotation
											JOINT RightHandPinky3
											{
												OFFSET 0.00000 2.15568 0.00000
												CHANNELS 3 Zrotation Xrotation Yrotation
												End site
												{
													OFFSET 0.00000 1.91616 0.00000
												}
											}
										}
									}
								}
							}
						}
					}
					JOINT LeftShoulder
					{
						OFFSET 0.00000 7.98668 5.19711
						CHANNELS 3 Zrotation Xrotation Yrotation
						JOINT LeftArm
						{
							OFFSET 0.00000 18.31580 0.00000
							CHANNELS 3 Zrotation Xrotation Yrotation
							JOINT LeftForeArm
							{
								OFFSET 0.00000 28.87420 0.00000
								CHANNELS 3 Zrotation Xrotation Yrotation
								JOINT LeftHand
								{
									OFFSET 0.00000 23.87720 0.00000
									CHANNELS 3 Zrotation Xrotation Yrotation
									JOINT LeftHandThumb1
									{
										OFFSET 2.41094 4.67063 3.47303
										CHANNELS 3 Zrotation Xrotation Yrotation
										JOINT LeftHandThumb2
										{
											OFFSET 0.00000 3.95207 0.00000
											CHANNELS 3 Zrotation Xrotation Yrotation
											JOINT LeftHandThumb3
											{
												OFFSET 0.00000 2.15568 0.00000
												CHANNELS 3 Zrotation Xrotation Yrotation
												End site
												{
													OFFSET 0.00000 1.60000 0.00000
												}
											}
										}
									}
									JOINT LeftHandIndex1
									{
										OFFSET 0.00000 12.45500 2.51496
										CHANNELS 3 Zrotation Xrotation Yrotation
										JOINT LeftHandIndex2
										{
											OFFSET 0.00000 4.79039 0.00000
											CHANNELS 3 Zrotation Xrotation Yrotation
											JOINT LeftHandIndex3
											{
												OFFSET 0.00000 2.63472 0.00000
												CHANNELS 3 Zrotation Xrotation Yrotation
												End site
												{
													OFFSET 0.00000 1.91616 0.00000
												}
											}
										}
									}
									JOINT LeftHandMiddle1
									{
										OFFSET 0.00000 12.45500 -0.07984
										CHANNELS 3 Zrotation Xrotation Yrotation
										JOINT LeftHandMiddle2
										{
											OFFSET 0.00000 5.38919 0.00000
											CHANNELS 3 Zrotation Xrotation Yrotation
											JOINT LeftHandMiddle3
											{
												OFFSET 0.00000 3.11376 0.00000
												CHANNELS 3 Zrotation Xrotation Yrotation
												End site
												{
													OFFSET 0.00000 2.03592 0.00000
												}
											}
										}
									}
									JOINT LeftHandRing1
									{
										OFFSET 0.00000 11.07780 -2.67464
										CHANNELS 3 Zrotation Xrotation Yrotation
										JOINT LeftHandRing2
										{
											OFFSET 0.00000 4.91015 0.00000
											CHANNELS 3 Zrotation Xrotation Yrotation
											JOINT LeftHandRing3
											{
												OFFSET 0.00000 3.11376 0.00000
												CHANNELS 3 Zrotation Xrotation Yrotation
												End site
												{
													OFFSET 0.00000 2.03592 0.00000
												}
											}
										}
									}
									JOINT LeftHandPinky1
									{
										OFFSET 0.00000 9.70055 -5.26943
										CHANNELS 3 Zrotation Xrotation Yrotation
										JOINT LeftHandPinky2
										{
											OFFSET 0.00000 3.95207 0.00000
											CHANNELS 3 Zrotation Xrotation Yrotation
											JOINT LeftHandPinky3
											{
												OFFSET 0.00000 2.15568 0.00000
												CHANNELS 3 Zrotation Xrotation Yrotation
												End site
												{
													OFFSET 0.00000 1.91616 0.00000
												}
											}
										}
									}
								}
							}
						}
					}
				}
			}
		}
	}
	JOINT RightUpLeg
	{
		OFFSET -10.06560 0.00000 0.00000
		CHANNELS 3 Zrotation Xrotation Yrotation
		JOINT RightLeg
		{
			OFFSET 0.00000 -42.98740 0.00000
			CHANNELS 3 Zrotation Xrotation Yrotation
			JOINT RightFoot
			{
				OFFSET 0.00000 -44.62500 0.00000
				CHANNELS 3 Zrotation Xrotation Yrotation
				JOINT RightForeFoot
				{
					OFFSET 0.00000 -3.74821 0.00000
					CHANNELS 3 Zrotation Xrotation Yrotation
					JOINT RightToeBase
					{
						OFFSET 0.00000 0.00000 14.67920
						CHANNELS 3 Zrotation Xrotation Yrotation
						End site
						{
							OFFSET 0.00000 0.00000 10.36040
						}
					}
				}
			}
		}
	}
	JOINT LeftUpLeg
	{
		OFFSET 10.06560 0.00000 0.00000
		CHANNELS 3 Zrotation Xrotation Yrotation
		JOINT LeftLeg
		{
			OFFSET 0.00000 -42.98740 0.00000
			CHANNELS 3 Zrotation Xrotation Yrotation
			JOINT LeftFoot
			{
				OFFSET 0.00000 -44.62500 0.00000
				CHANNELS 3 Zrotation Xrotation Yrotation
				JOINT LeftForeFoot
				{
					OFFSET 0.00000 -3.74821 0.00000
					CHANNELS 3 Zrotation Xrotation Yrotation
					JOINT LeftToeBase
					{
						OFFSET 0.00000 0.00000 14.67920
						CHANNELS 3 Zrotation Xrotation Yrotation
						End site
						{
							OFFSET 0.00000 0.00000 10.67280
						}
					}
				}
			}
		}
	}
}
MOTION
Frames: 3
Frame Time: 0.016667
-4.887090754177948249e+00 9.183997774832100447e+01 -5.561855894120065358e+01 -1.184130226380951001e+01 9.349986207487146928e+00 -1.865709237097795494e+02 -9.562277715426866109e+00 8.456418159349633257e+00 5.783347176629318742e-01 -2.254506052196795896e+00 6.469384574392631926e+00 9.365141082949401952e-01 -1.324773917435531745e+00 2.472797702152738530e+00 1.649666026051265444e+00 9.384093420972043909e-01 2.001102097907056176e+00 -5.911273797531584329e-01 -7.156894310703683537e+00 9.425979807564861090e+00 1.038728459015552552e+01 -6.670317987955722838e-01 -3.693492022363554561e+00 1.609350721254316596e+01 -3.021371909217225316e+00 -1.745285403347303799e+01 1.364497980802848565e+00 1.061776511888203203e+02 -1.894522216967788708e+01 4.565651324589262927e+00 4.948610774444898652e+01 -1.437960440739467671e+01 -1.773013648120704744e+01 -1.707055743340619713e-01 6.186453566845919028e+01 3.350163350261212258e+01 2.178364174370466344e+01 -4.611416295804220411e+00 6.128094236194795222e-07 -1.799250768721640625e+01 3.293202827596548588e+01 8.321698564067297355e+00 8.148966590393840568e-16 2.916617497947181736e-17 1.603099852428352087e-15 8.039867114761572266e-16 6.629965515292135261e-17 1.370202680310940935e-15 -6.968528681421815030e-01 -2.020872206878898291e-15 1.208034482415960291e-15 1.604700682680780196e-15 -9.678467827280708959e-15 3.911701348994362281e-15 3.166817907366025421e-15 -1.277123866033076137e-14 6.353375384900406262e-15 8.697454863764384925e+00 -1.071682441353734860e-15 2.791833632566766017e-15 3.160521224488323228e-15 -6.297532298539462666e-15 1.545242406250973652e-15 -1.583587670495388267e-15 3.124026241129319357e-15 -3.145893477226272653e-17 2.240904189943459102e+01 -6.835155510916940795e-16 4.607508391856895833e-15 -4.730570439303453759e-15 -1.264280559558058510e-14 7.204829850807979735e-18 1.573687047561120625e-15 3.217633361453115286e-15 4.080179481715544255e-17 5.063501056244984966e+01 2.478977331213016810e-15 6.078596053689990492e-15 2.101963971337463540e-17 -1.518246598934089557e-15 3.164742466646756781e-15 -4.811087818764659052e-15 2.765523693021502185e-17 9.507367416609300090e-15 -1.000553819306343257e+02 -2.024248786971436687e+01 -3.223390246503324619e+00 -4.946474239835399089e+01 -7.700870359025344669e+00 2.303185721541445119e+01 2.857578633082619390e+00 7.017960967414430229e+01 -1.400891567907169666e+01 -3.957700208904257977e+01 1.259698669606468258e+00 -3.665149715862558609e-05 1.850358473447190022e+01 4.648072047533183593e+01 -1.306236394909788778e+01 8.860549038810122202e-18 1.333371436852335679e-16 3.703987558731185972e-15 4.504434299739121751e-18 1.177592771118329023e-16 6.071496218750281861e-16 1.470128308279953444e+01 9.028995121020348862e-15 -2.766456426984072587e-15 -2.135159109200023385e-17 3.145767101865572388e-15 1.597081792207981820e-15 -7.896886632871290236e-16 3.183601366903210999e-15 -8.121834569039556174e-16 -2.341350843013801253e+00 9.984790640798995565e-15 1.508073574438384891e-15 -5.129719712534715118e-15 9.587628556910706525e-15 -6.056223046299449027e-16 1.781523253151759652e-15 -3.236612084071419965e-15 3.230840681787287573e-15 -2.854450301068592566e+01 7.233621782010303809e-15 5.005235670719673117e-15 -7.950160917269548511e-15 3.075724827098552364e-15 1.581153806302010754e-15 -4.724604103098379343e-15 3.158477473821663143e-15 -3.186867768897995691e-15 -6.772866029224488216e+01 -1.084813906287367806e-15 8.017832016600002396e-15 -1.661588613938026476e-15 5.545056588350288067e-17 9.532627338576189817e-15 7.735749933039528536e-16 1.548000551921301509e-15 3.164643298601414975e-15 -1.583195954698000918e+01 9.854803601176541861e+00 -8.979225199987109107e+00 2.620376228356833259e-01 2.322809687677445822e+01 -1.383768178509354740e-01 4.099393684360746803e+00 -1.664898476657534587e+01 -3.905951404243959146e+00 7.773578767549851292e-16 1.604038623449595239e-15 -1.776595208764117840e-15 5.096579839790519275e-16 5.949681438632239860e+00 -2.981092875617484784e-15 -9.976597372988189605e+00 4.738682484829602082e+00 1.788334875201235619e+01 -2.460132431713009105e-01 1.016634416407066155e+01 -3.028180305369596592e-01 4.194103282981700431e-01 -3.088807689451922300e+00 -7.982573435291357988e+00 -3.842774742175284397e-16 -5.376223302942308627e-18 2.433412721755449053e-16 -9.280463000752992768e-18 -1.817187208555270495e+00 -2.405491666758764068e-16
3.268041447308856817e+00 9.209147294656725080e+01 8.968520135525110959e+00 -9.274209682073074390e+00 5.979752607993873426e+00 -1.766449798714930353e+02 -9.103926144798245801e+00 9.359732957431804223e+00 8.750969761912765765e-01 -2.376622755432451051e+00 6.282414468948671171e+00 8.868275221707966338e-01 -2.016939857596521612e+00 2.171179963811441294e+00 6.895584289218670282e-01 1.457976514377288035e+00 2.333872729329356410e+00 -8.994584665348592800e-01 -2.399760095566202622e+00 1.190631178325173600e+01 1.048842994274322038e+00 -1.564760149919342425e+00 -2.939305351019981138e+00 -3.994263552021802610e+00 -1.381949096254673881e+00 -1.693318983133136513e+01 -1.750324760920846379e-01 9.459510926187603275e+01 -2.580233863358595414e+01 2.094636782087506699e+00 4.358515525259497281e+01 -1.259295346345335886e+01 -3.963616915454613121e+01 1.794504741286100966e+02 6.261273163348749193e+01 -1.654084952658401448e+02 3.307955726679438158e+01 -9.933801229627139406e+00 2.478417083301171636e-05 7.096494934723902581e+00 5.592031506015940678e+00 -1.195568623391863206e+00 6.462099935552136803e-18 3.226529736396378110e-15 -3.182186137008686828e-17 3.196885503362950907e-15 -3.151373136652361459e-15 -3.203148727658230732e-15 6.144646798218548156e+01 6.175801569926359443e-15 1.050819534523087582e-14 -1.587068303106659557e-15 -1.676787782486304963e-15 -1.160929211259921954e-16 -1.603119835759897419e-15 -3.189705220644088353e-15 8.566005408538084715e-18 7.685028580856229041e+01 9.004326547865949767e-15 1.144377607686531433e-14 -3.166727680646305170e-15 3.130377556270210264e-15 -3.097291041610798448e-15 -3.193662675517061073e-15 6.387865346187579066e-15 -6.604143437851750353e-19 7.061241748164601972e+01 7.648771505323562705e-15 9.643029035390125051e-15 1.542109434890415219e-15 1.679673222407063260e-15 -1.277760341190064614e-14 -4.713640512803691843e-15 6.477237213605424103e-15 -3.142280315328232199e-15 7.459374725242562931e+01 6.554960074174285395e-15 8.344062394744348035e-15 1.580874405070465774e-15 -3.224663482426878103e-15 6.344663588846091523e-15 1.616691400527629411e-15 3.217714748995381999e-15 -3.257831096928095000e-17 -9.664915891566698747e+01 -2.225952525058900733e+01 -2.661821936654301446e+00 -3.433554462626032944e+01 -1.574033699924857288e+01 3.073918347798223749e+01 1.740027267791136296e+02 8.633929460156370794e+01 1.619119457445599153e+02 -2.011557804963202756e+01 5.066340806556973719e-02 4.106305248413044673e-04 -1.433972401721662138e+01 8.335879544935391294e+00 7.371514579776435205e+00 -3.144152229320074489e-15 -9.566929219546368274e-15 3.197643420794623342e-15 -3.205791995807745061e-15 -4.749050727270908084e-15 -6.330433667540028706e-15 -5.890890263603193233e+01 -5.959379455546441104e-16 -5.331645736207654881e-16 -2.751119129558221704e-17 4.818137104140435426e-15 3.151266919713300524e-15 -3.159740752081464529e-15 6.369325317174445936e-15 3.153311486617949462e-15 -8.775643284854848503e+01 -9.664502843424243873e-16 -1.160797711321155319e-16 5.105369359460469318e-17 3.159982404797428493e-15 -6.319543597823938510e-15 -3.146680321036515530e-15 9.478161499891420296e-15 -1.270139571275686223e-14 -8.924297724049502278e+01 -7.818878486478614093e-16 1.153400011271522457e-15 -3.219814289695288837e-15 -1.476509782960811170e-18 3.174305409151563669e-15 -6.346971985299144246e-15 -6.344395466083993823e-15 -3.929191825048291423e-17 -9.537290480517883395e+01 -7.087626270419309783e-16 1.271638779504691705e-15 2.553128061514435039e-17 -3.094751530910881682e-15 -9.508830803390067608e-15 -3.167243758641361312e-15 3.125769324841084000e-15 -9.543259446017831418e-15 -2.971050338484198861e+00 1.644331366278115780e+01 -3.877171075195640526e+00 4.161143994684901593e-01 1.217538897746800863e+01 4.498453777429882727e-01 -3.672486864365486214e-01 -2.211412283073600804e+01 -6.165038483864784702e+00 -2.246256549856188260e-16 -1.171960939594989389e-15 -3.899836462375202823e-16 -7.688966407725976936e-16 1.110566290790831800e+01 2.126603657009474472e-15 -3.577648762437029450e+00 -3.780838830270883300e+00 1.659907455869356951e+01 1.413788886042883775e-01 1.726973499985805205e+01 2.107297876354137234e-01 -3.407963767389328158e+00 3.317213225845167202e+00 -5.621778789868692172e+00 5.535577248890629656e-19 4.396885129927699745e-17 -1.501343615712593435e-15 7.444998151555858553e-16 -6.830210172589470830e+00 -1.164608206497218391e-16
-2.954584368102141667e+01 8.814317236620406959e+01 3.612256334451735285e+01 -5.368354592102156708e+00 1.083006431363292599e+01 1.645465996290469661e+02 -9.411621962539424402e+00 7.492727329704052863e+00 1.212809944646857430e+00 -2.630747022468814755e+00 6.061750147416064216e+00 1.074885579024404514e+00 -2.401758454489748118e+00 2.210536811272601376e+00 4.367737201049255447e+00 7.668303149043274036e-01 2.436490215305817664e+00 -1.074482261630995694e-01 -1.376267091114173224e+00 1.138047759373823986e+01 3.789749066083913931e+00 1.290704632475403235e+00 -3.195411071855198237e+00 4.910043041492775373e-01 1.032880930573031986e+00 -1.720841753820393905e+01 -6.236544031362803442e-02 1.039355181058207478e+02 -1.603359762949444800e+01 3.718632661497953240e+00 5.228210899183182647e+01 1.575992638481588415e+01 6.688364061171965247e+00 -1.784306864852744354e+02 8.490442498689334627e+01 -1.373805850572101122e+02 -7.261287914410852196e-01 -7.193089810856390542e+00 -1.852672612466348123e-05 -1.704038247864249200e+01 3.169387287654443242e+01 1.092958719818524216e+01 -3.190422397373008229e-15 1.652018079205192190e-15 -1.028719251362365561e-17 3.194567049937102443e-15 -1.632506883995758517e-15 -3.176817150991925080e-15 -1.624658368794771235e+01 -3.555883810033367843e-15 6.377185071839359259e-15 3.150621855416073609e-15 -1.059868701841414287e-16 3.205296705071699608e-15 -6.359453878386889611e-15 3.230752701043275840e-15 3.138481744025673707e-15 -5.469816884794219902e+00 -2.981340029719651101e-15 2.451070581023442602e-15 -6.384817469791668880e-15 2.578739092046666621e-17 8.061331299464477974e-15 -1.480801940718527810e-18 -3.197879348005774549e-15 1.518289131440288854e-15 1.498438353361872544e+01 -3.837771371026770892e-15 -3.775993188979392535e-15 2.284764678568605202e-17 -3.228418113774126771e-15 1.470637733340648819e-17 3.211591191275484321e-15 -3.140106087072122608e-15 -3.203126946408019887e-15 5.509784397569958969e+01 -8.988410107757180520e-15 -1.013615320006114131e-14 -9.518635746472418709e-15 4.415472350581737596e-17 -1.811108032525964290e-17 3.163593751763883827e-15 5.328053217642915349e-17 -4.797681958480899167e-15 -1.032890947914012116e+02 -1.898577107030442690e+01 -3.953728246045804973e+00 -6.079910250339462152e+01 4.718295709369737523e+00 -1.599276771778832540e+01 1.794726933109615175e+02 7.016496722151471488e+01 1.243768222249184561e+02 1.984714742779228658e+01 -4.917409571328533957e+00 -2.065389343914762277e-07 1.450593466436010104e+01 3.329855209585295484e+01 -8.860553486315822624e+00 6.406988810475946431e-15 -3.277587466527830440e-15 -1.439374885262344633e-17 -1.096305633250989106e-17 1.279504208623385750e-14 1.523802323669783600e-17 4.795609114583138677e+01 -5.537505418471417481e-16 3.394611527829163922e-15 -3.207984525106379165e-15 4.317966027086091939e-17 -7.879174994894042062e-16 -8.201950348372792969e-18 7.471664951041806299e-16 -4.411433350579253873e-17 2.952198572308835978e+01 -4.458375041202781139e-16 1.993283188639198113e-15 6.341617284514804381e-15 1.605144372206702392e-15 1.530098233593785402e-17 3.228531053691465763e-15 7.491619298876387714e-16 8.096237548439318019e-16 -1.302909774259549458e+01 4.102473962924819207e-16 -5.942783948209577210e-16 -1.611202004044298430e-15 -3.224637306398192812e-15 1.149923054172617439e-15 1.642015699202043397e-17 -1.559851943851217894e-15 4.252126072774972308e-16 -7.399039693721260846e+01 3.523006381251888621e-15 -2.532393379125647773e-15 6.366499950716521198e-15 1.727410485496567539e-15 1.580490297814972553e-15 6.325362812213309591e-15 -8.402721405327749163e-16 7.693997958223538450e-16 -1.931269646143263685e+00 1.987443473759937973e+01 -2.639437096514595993e+01 -1.544971161170843432e+00 2.091646345686514152e+01 -1.596565507558831865e+00 -1.009545120111063810e+01 -2.694570291242619930e+01 -1.885531388325239277e+01 -8.080836555218013552e-16 -5.791683920719918758e-16 6.220988126380273557e-15 -3.762051090907955004e-16 5.994336139003781483e+00 -6.202109889667052713e-15 -3.388997203135579284e+00 -7.526816038752378368e+00 2.612178760043582670e+01 -5.280581359034255406e-01 2.889791909175643525e+01 -6.282136753895164460e-01 3.231644850628043741e-01 -1.036843801126491371e+01 2.775279072021799465e+00 -1.054256903197597846e-15 -2.389780758321361003e-15 1.254506810550991465e-15 -1.177355799343326774e-15 -4.097713091520319040e+00 -1.695906373254700707e-15
